<svg width="852" height="188" viewBox="0 0 852 188" fill="none" xmlns="http://www.w3.org/2000/svg">
<rect x="2.5" y="2.5" width="847" height="183" rx="91.5" stroke="#183E0C" stroke-width="5"/>
<path d="M118.155 53.9547C120.54 49.5455 124.101 45.8836 128.441 43.3753C132.781 40.8671 137.732 39.6107 142.743 39.7455C147.754 39.8804 152.63 41.4013 156.829 44.1394C161.028 46.8774 164.386 50.7256 166.531 55.2567C160.886 55.3838 155.4 57.1527 150.744 60.3472C146.087 63.5416 142.463 68.0233 140.312 73.2444C138.327 69.9414 135.951 66.8892 133.237 64.1537C128.871 59.8662 123.76 56.4101 118.155 53.9547ZM196.19 86.2489C196.231 85.6083 196.252 84.9624 196.252 84.3114C196.255 78.0142 194.212 71.8865 190.431 66.8506C186.65 61.8147 181.336 58.143 175.288 56.3882C173.199 49.7705 169.185 43.926 163.757 39.6018C158.329 35.2776 151.736 32.6702 144.819 32.1128C137.901 31.5553 130.975 33.0733 124.925 36.4725C118.875 39.8717 113.976 44.9979 110.855 51.1957C107.772 50.2359 104.632 49.4698 101.454 48.9017C96.0783 47.9359 90.6252 47.4664 85.1635 47.4989L83.7375 47.5454H83.7065C82.7585 47.6008 81.8638 48.0023 81.1924 48.6738C80.5209 49.3453 80.1194 50.2399 80.064 51.1879V51.1957L80.002 52.6527C79.9654 58.1219 80.4324 63.5828 81.397 68.9664C82.3502 74.2519 83.9622 80.3124 86.7057 86.2489H83.877C82.8493 86.2489 81.8637 86.6572 81.137 87.3839C80.4102 88.1106 80.002 89.0962 80.002 90.1239V93.9989C80.002 99.3464 80.684 104.539 81.955 109.499H202.049C203.351 104.435 204.007 99.2273 204.002 93.9989V90.1239C204.002 89.0962 203.594 88.1106 202.867 87.3839C202.14 86.6572 201.155 86.2489 200.127 86.2489H196.19ZM95.378 86.2489C92.0145 80.1884 90.0925 73.5467 89.023 67.5869C88.292 63.5173 87.8723 59.3979 87.7675 55.2644L88.651 55.2954C91.534 55.3962 95.5485 55.7062 100.074 56.5277C109.219 58.1784 119.961 61.8364 127.757 69.6329C132.531 74.4069 135.763 80.2969 137.933 86.2489H124.239L109.87 71.8804C109.51 71.5207 109.083 71.2354 108.612 71.0409C108.142 70.8463 107.637 70.7464 107.128 70.7468C106.619 70.7471 106.115 70.8478 105.645 71.0429C105.174 71.2381 104.747 71.524 104.387 71.8843C104.028 72.2446 103.742 72.6722 103.548 73.1427C103.353 73.6133 103.253 74.1175 103.254 74.6267C103.254 75.1358 103.355 75.6399 103.55 76.1102C103.745 76.5804 104.031 77.0077 104.391 77.3674L113.28 86.2489H95.378ZM146.125 86.2489L145.916 85.6212C145.747 82.6974 146.183 79.7702 147.196 77.0223C148.209 74.2744 149.777 71.7648 151.803 69.65C153.829 67.5352 156.269 65.8607 158.971 64.731C161.673 63.6012 164.579 63.0405 167.508 63.0837C170.436 63.127 173.324 63.7733 175.991 64.9823C178.659 66.1914 181.048 67.9372 183.011 70.1109C184.974 72.2845 186.467 74.8394 187.399 77.616C188.33 80.3926 188.679 83.3314 188.424 86.2489H146.125ZM142.002 155.999C129.649 156.002 117.578 152.315 107.335 145.411C97.0918 138.506 89.1447 128.7 84.5125 117.249H199.499C194.867 128.701 186.918 138.508 176.674 145.413C166.429 152.317 154.356 156.003 142.002 155.999Z" fill="#183E0C"/>
<path d="M229.15 132V57.7H272.35V66.7H240.95V89.3H264.25V98.2H240.95V122.8H275.85V132H229.15ZM302.232 132.8L280.332 76.3H292.782L303.332 107.25L308.932 125.95H305.932L311.082 107.25L321.282 76.3H333.532L312.182 132.8H302.232ZM363.336 132.8C355.336 132.8 349.169 130.267 344.836 125.2C340.502 120.133 338.336 113.1 338.336 104.1C338.336 98.7 339.286 93.8667 341.186 89.6C343.119 85.3333 345.952 81.95 349.686 79.45C353.452 76.95 358.069 75.6667 363.536 75.6C366.336 75.5333 368.969 75.9333 371.436 76.8C373.902 77.6667 376.086 78.9833 377.986 80.75C379.886 82.4833 381.386 84.6833 382.486 87.35C383.619 90.0167 384.236 93.1333 384.336 96.7C384.336 98.8 384.319 100.683 384.286 102.35C384.252 103.983 384.102 105.433 383.836 106.7H345.036L346.036 99.4H373.536C373.702 96.7333 373.536 94.2167 373.036 91.85C372.569 89.45 371.536 87.5167 369.936 86.05C368.369 84.55 366.036 83.8 362.936 83.8C360.336 83.8 358.002 84.5333 355.936 86C353.869 87.4333 352.269 89.8667 351.136 93.3C350.002 96.7333 349.536 101.433 349.736 107.4C349.936 111.6 350.786 114.917 352.286 117.35C353.786 119.783 355.752 121.517 358.186 122.55C360.619 123.583 363.336 124.1 366.336 124.1C367.602 124.1 369.152 123.967 370.986 123.7C372.819 123.4 374.586 123.033 376.286 122.6C378.019 122.133 379.336 121.633 380.236 121.1L382.436 127.7C381.202 128.7 379.519 129.583 377.386 130.35C375.286 131.117 373.002 131.717 370.536 132.15C368.069 132.583 365.669 132.8 363.336 132.8ZM407.697 91.1L406.997 83.5C407.497 82.4667 408.547 81.3333 410.147 80.1C411.747 78.8333 413.631 77.75 415.797 76.85C417.997 75.95 420.231 75.5 422.497 75.5C423.764 75.5 424.847 75.55 425.747 75.65C426.681 75.75 427.364 75.9333 427.797 76.2V87C427.297 86.7333 426.531 86.45 425.497 86.15C424.497 85.85 422.864 85.7 420.597 85.7C418.531 85.7 416.664 86 414.997 86.6C413.364 87.1667 411.931 87.8667 410.697 88.7C409.464 89.5333 408.464 90.3333 407.697 91.1ZM396.797 132V76.4H406.597L407.397 83.5L408.297 87.7V132H396.797ZM458.029 157.2C450.696 157.2 444.896 155.85 440.629 153.15C436.363 150.45 434.229 146.333 434.229 140.8C434.229 138.733 434.729 136.883 435.729 135.25C436.729 133.65 437.963 132.3 439.429 131.2C440.896 130.1 442.329 129.267 443.729 128.7L451.129 129.8C450.429 130.433 449.646 131.1 448.779 131.8C447.913 132.5 447.146 133.417 446.479 134.55C445.846 135.717 445.529 137.267 445.529 139.2C445.529 141.4 445.963 143.267 446.829 144.8C447.696 146.367 449.063 147.55 450.929 148.35C452.829 149.183 455.329 149.6 458.429 149.6C461.296 149.6 463.946 149.283 466.379 148.65C468.813 148.05 470.763 147.117 472.229 145.85C473.696 144.617 474.429 143.067 474.429 141.2C474.429 139.233 474.063 137.567 473.329 136.2C472.629 134.833 471.296 133.783 469.329 133.05C467.396 132.35 464.563 132 460.829 132H455.329C453.429 132 451.746 131.967 450.279 131.9C448.813 131.8 447.496 131.6 446.329 131.3C445.929 131.2 445.546 131.033 445.179 130.8C444.813 130.533 444.429 130.333 444.029 130.2C441.529 129.233 439.846 127.9 438.979 126.2C438.146 124.5 437.729 122.8 437.729 121.1C437.729 119.8 438.063 118.483 438.729 117.15C439.429 115.783 440.396 114.483 441.629 113.25C442.896 111.983 444.363 110.867 446.029 109.9L453.179 111.7C451.979 112.167 450.879 112.983 449.879 114.15C448.913 115.283 448.429 116.5 448.429 117.8C448.429 119.833 448.913 121.217 449.879 121.95C450.879 122.65 452.529 123 454.829 123H464.829C469.129 123 472.629 123.45 475.329 124.35C478.029 125.25 480.113 126.467 481.579 128C483.046 129.5 484.046 131.167 484.579 133C485.146 134.867 485.429 136.767 485.429 138.7C485.429 141.6 484.713 144.183 483.279 146.45C481.846 148.75 479.863 150.7 477.329 152.3C474.796 153.9 471.879 155.117 468.579 155.95C465.279 156.783 461.763 157.2 458.029 157.2ZM457.679 113C453.513 113 449.763 112.233 446.429 110.7C443.096 109.133 440.463 106.983 438.529 104.25C436.596 101.483 435.629 98.3 435.629 94.7C435.629 90.3667 436.596 86.8 438.529 84C440.463 81.2 443.113 79.1167 446.479 77.75C449.846 76.3833 453.646 75.6667 457.879 75.6C462.013 75.5 465.796 76.1 469.229 77.4C472.663 78.7 475.396 80.7333 477.429 83.5C479.496 86.2333 480.529 89.7667 480.529 94.1C480.529 98.1667 479.546 101.617 477.579 104.45C475.613 107.25 472.913 109.383 469.479 110.85C466.046 112.283 462.113 113 457.679 113ZM457.979 105.5C461.413 105.5 464.146 104.733 466.179 103.2C468.213 101.633 469.229 98.7167 469.229 94.45C469.229 90.7833 468.346 88 466.579 86.1C464.813 84.1667 462.129 83.2 458.529 83.2C456.463 83.2 454.546 83.5 452.779 84.1C451.013 84.7 449.596 85.8 448.529 87.4C447.463 89 446.929 91.2833 446.929 94.25C446.929 97.2833 447.796 99.9167 449.529 102.15C451.296 104.383 454.113 105.5 457.979 105.5ZM474.379 85L471.229 80.35C471.963 79.4167 473.413 78.45 475.579 77.45C477.779 76.45 480.179 75.95 482.779 75.95H488.379V85H474.379ZM508.186 91.1L507.486 83.5C507.986 82.4667 509.036 81.3333 510.636 80.1C512.236 78.8333 514.119 77.75 516.286 76.85C518.486 75.95 520.719 75.5 522.986 75.5C524.252 75.5 525.336 75.55 526.236 75.65C527.169 75.75 527.852 75.9333 528.286 76.2V87C527.786 86.7333 527.019 86.45 525.986 86.15C524.986 85.85 523.352 85.7 521.086 85.7C519.019 85.7 517.152 86 515.486 86.6C513.852 87.1667 512.419 87.8667 511.186 88.7C509.952 89.5333 508.952 90.3333 508.186 91.1ZM497.286 132V76.4H507.086L507.886 83.5L508.786 87.7V132H497.286ZM558.941 132.8C550.941 132.8 544.774 130.267 540.441 125.2C536.108 120.133 533.941 113.1 533.941 104.1C533.941 98.7 534.891 93.8667 536.791 89.6C538.724 85.3333 541.558 81.95 545.291 79.45C549.058 76.95 553.674 75.6667 559.141 75.6C561.941 75.5333 564.574 75.9333 567.041 76.8C569.508 77.6667 571.691 78.9833 573.591 80.75C575.491 82.4833 576.991 84.6833 578.091 87.35C579.224 90.0167 579.841 93.1333 579.941 96.7C579.941 98.8 579.924 100.683 579.891 102.35C579.858 103.983 579.708 105.433 579.441 106.7H540.641L541.641 99.4H569.141C569.308 96.7333 569.141 94.2167 568.641 91.85C568.174 89.45 567.141 87.5167 565.541 86.05C563.974 84.55 561.641 83.8 558.541 83.8C555.941 83.8 553.608 84.5333 551.541 86C549.474 87.4333 547.874 89.8667 546.741 93.3C545.608 96.7333 545.141 101.433 545.341 107.4C545.541 111.6 546.391 114.917 547.891 117.35C549.391 119.783 551.358 121.517 553.791 122.55C556.224 123.583 558.941 124.1 561.941 124.1C563.208 124.1 564.758 123.967 566.591 123.7C568.424 123.4 570.191 123.033 571.891 122.6C573.624 122.133 574.941 121.633 575.841 121.1L578.041 127.7C576.808 128.7 575.124 129.583 572.991 130.35C570.891 131.117 568.608 131.717 566.141 132.15C563.674 132.583 561.274 132.8 558.941 132.8ZM614.703 132.8C606.703 132.8 600.536 130.267 596.203 125.2C591.869 120.133 589.703 113.1 589.703 104.1C589.703 98.7 590.653 93.8667 592.553 89.6C594.486 85.3333 597.319 81.95 601.053 79.45C604.819 76.95 609.436 75.6667 614.903 75.6C617.703 75.5333 620.336 75.9333 622.803 76.8C625.269 77.6667 627.453 78.9833 629.353 80.75C631.253 82.4833 632.753 84.6833 633.853 87.35C634.986 90.0167 635.603 93.1333 635.703 96.7C635.703 98.8 635.686 100.683 635.653 102.35C635.619 103.983 635.469 105.433 635.203 106.7H596.403L597.403 99.4H624.903C625.069 96.7333 624.903 94.2167 624.403 91.85C623.936 89.45 622.903 87.5167 621.303 86.05C619.736 84.55 617.403 83.8 614.303 83.8C611.703 83.8 609.369 84.5333 607.303 86C605.236 87.4333 603.636 89.8667 602.503 93.3C601.369 96.7333 600.903 101.433 601.103 107.4C601.303 111.6 602.153 114.917 603.653 117.35C605.153 119.783 607.119 121.517 609.553 122.55C611.986 123.583 614.703 124.1 617.703 124.1C618.969 124.1 620.519 123.967 622.353 123.7C624.186 123.4 625.953 123.033 627.653 122.6C629.386 122.133 630.703 121.633 631.603 121.1L633.803 127.7C632.569 128.7 630.886 129.583 628.753 130.35C626.653 131.117 624.369 131.717 621.903 132.15C619.436 132.583 617.036 132.8 614.703 132.8ZM649.164 132V76.4H659.514L659.564 82.3C660.931 81.3667 662.648 80.3833 664.714 79.35C666.814 78.3167 669.064 77.4333 671.464 76.7C673.898 75.9667 676.314 75.5667 678.714 75.5C684.681 75.3333 688.964 76.8833 691.564 80.15C694.164 83.3833 695.464 89.0833 695.464 97.25V132H683.864V97.85C683.864 93.1833 683.231 89.8333 681.964 87.8C680.731 85.7667 678.031 84.8667 673.864 85.1C672.698 85.1333 671.348 85.35 669.814 85.75C668.314 86.1167 666.764 86.6667 665.164 87.4C663.598 88.1 662.098 89 660.664 90.1V132H649.164Z" fill="#183E0C"/>
</svg>
